<svg xmlns="http://www.w3.org/2000/svg" width="1200" height="580" viewBox="0 0 1200 580" role="img" aria-labelledby="title">
<title id="title">Ilia Farahani — Backend developer / Security enthusiast. Engineering beneath the surface.</title>
<defs>
<linearGradient id="edge"><stop stop-color="#72f5d0"/><stop offset=".52" stop-color="#b6a0ff"/><stop offset="1" stop-color="#ed9cc8"/></linearGradient>
<radialGradient id="aura"><stop stop-color="#6553c1" stop-opacity=".38"/><stop offset="1" stop-color="#6553c1" stop-opacity="0"/></radialGradient>
<linearGradient id="panel" x2="1" y2="1"><stop stop-color="#141b2d"/><stop offset="1" stop-color="#0c1220"/></linearGradient>
<pattern id="grid" width="40" height="40" patternUnits="userSpaceOnUse"><path d="M40 0H0V40" fill="none" stroke="#a5b3dd" stroke-opacity=".045"/></pattern>
</defs>
<style>text{font-family:Segoe UI,Arial,sans-serif}.mono{font-family:Consolas,monospace}.orbit{animation:spin 45s linear infinite;transform-origin:900px 278px}.pulse{animation:breath 5s ease-in-out infinite}@keyframes spin{to{transform:rotate(360deg)}}@keyframes breath{50%{opacity:.4}}@media(prefers-reduced-motion:reduce){.orbit,.pulse{animation:none}}</style>
<rect x="1" y="1" width="1198" height="578" rx="24" fill="#090d18" stroke="#283047"/><rect x="2" y="2" width="1196" height="576" rx="23" fill="url(#grid)"/><ellipse cx="916" cy="270" rx="350" ry="280" fill="url(#aura)"/><path d="M48 1H1152" stroke="url(#edge)" stroke-width="2"/><text x="48" y="43" fill="#72f5d0" font-size="19" font-weight="700" >IF /</text><text x="107" y="42" fill="#94a0b9" font-size="11" font-weight="500" letter-spacing="2">PERSONAL ENGINEERING SPACE</text><text x="1150" y="42" fill="#94a0b9" font-size="13" font-weight="400" text-anchor="end" class="mono">@here-is-leo</text><path d="M48 65H1152" stroke="#242d42"/><text x="50" y="118" fill="#72f5d0" font-size="12" font-weight="500" letter-spacing="2">BACKEND DEVELOPER  /  SECURITY ENTHUSIAST</text><text x="44" y="230" fill="#f0f2ff" font-size="116" font-weight="750" letter-spacing="-6">ILIA</text><text x="44" y="329" fill="#f0f2ff" font-size="94" font-weight="750" letter-spacing="-5">FARAHANI</text><text x="50" y="385" fill="#b6a0ff" font-size="24" font-weight="500" >Engineering beneath the surface.</text><text x="50" y="422" fill="#94a0b9" font-size="16" font-weight="400" >Thoughtful systems. Safer defaults. Relentless curiosity.</text><g fill="none" stroke="#b6a0ff"><circle cx="900" cy="278" r="166" stroke-opacity=".16"/><circle cx="900" cy="278" r="192" stroke-opacity=".16"/><circle cx="900" cy="278" r="210" stroke-opacity=".16"/><ellipse cx="900" cy="278" rx="42" ry="151" stroke-opacity=".20" transform="rotate(-24 900 278)"/><ellipse cx="900" cy="278" rx="88" ry="151" stroke-opacity=".20" transform="rotate(-24 900 278)"/><ellipse cx="900" cy="278" rx="128" ry="151" stroke-opacity=".20" transform="rotate(-24 900 278)"/><ellipse cx="900" cy="278" rx="151" ry="151" stroke-opacity=".20" transform="rotate(-24 900 278)"/><ellipse cx="900" cy="278" rx="151" ry="38" stroke-opacity=".17" transform="rotate(-24 900 278)"/><ellipse cx="900" cy="278" rx="151" ry="77" stroke-opacity=".17" transform="rotate(-24 900 278)"/><ellipse cx="900" cy="278" rx="151" ry="116" stroke-opacity=".17" transform="rotate(-24 900 278)"/><ellipse cx="900" cy="278" rx="151" ry="151" stroke-opacity=".17" transform="rotate(-24 900 278)"/></g><g class="orbit" fill="none"><path d="M1101.00 278.00L1111.00 278.00" stroke="#b6a0ff" stroke-opacity=".5"/><path d="M1099.90 299.01L1103.88 299.43" stroke="#b6a0ff" stroke-opacity=".5"/><path d="M1096.61 319.79L1100.52 320.62" stroke="#b6a0ff" stroke-opacity=".5"/><path d="M1091.16 340.11L1094.97 341.35" stroke="#b6a0ff" stroke-opacity=".5"/><path d="M1083.62 359.75L1087.28 361.38" stroke="#b6a0ff" stroke-opacity=".5"/><path d="M1074.07 378.50L1082.73 383.50" stroke="#b6a0ff" stroke-opacity=".5"/><path d="M1062.61 396.14L1065.85 398.50" stroke="#b6a0ff" stroke-opacity=".5"/><path d="M1049.37 412.50L1052.34 415.17" stroke="#b6a0ff" stroke-opacity=".5"/><path d="M1034.50 427.37L1037.17 430.34" stroke="#b6a0ff" stroke-opacity=".5"/><path d="M1018.14 440.61L1020.50 443.85" stroke="#b6a0ff" stroke-opacity=".5"/><path d="M1000.50 452.07L1005.50 460.73" stroke="#b6a0ff" stroke-opacity=".5"/><path d="M981.75 461.62L983.38 465.28" stroke="#b6a0ff" stroke-opacity=".5"/><path d="M962.11 469.16L963.35 472.97" stroke="#b6a0ff" stroke-opacity=".5"/><path d="M941.79 474.61L942.62 478.52" stroke="#b6a0ff" stroke-opacity=".5"/><path d="M921.01 477.90L921.43 481.88" stroke="#b6a0ff" stroke-opacity=".5"/><path d="M900.00 479.00L900.00 489.00" stroke="#b6a0ff" stroke-opacity=".5"/><path d="M878.99 477.90L878.57 481.88" stroke="#b6a0ff" stroke-opacity=".5"/><path d="M858.21 474.61L857.38 478.52" stroke="#b6a0ff" stroke-opacity=".5"/><path d="M837.89 469.16L836.65 472.97" stroke="#b6a0ff" stroke-opacity=".5"/><path d="M818.25 461.62L816.62 465.28" stroke="#b6a0ff" stroke-opacity=".5"/><path d="M799.50 452.07L794.50 460.73" stroke="#b6a0ff" stroke-opacity=".5"/><path d="M781.86 440.61L779.50 443.85" stroke="#b6a0ff" stroke-opacity=".5"/><path d="M765.50 427.37L762.83 430.34" stroke="#b6a0ff" stroke-opacity=".5"/><path d="M750.63 412.50L747.66 415.17" stroke="#b6a0ff" stroke-opacity=".5"/><path d="M737.39 396.14L734.15 398.50" stroke="#b6a0ff" stroke-opacity=".5"/><path d="M725.93 378.50L717.27 383.50" stroke="#b6a0ff" stroke-opacity=".5"/><path d="M716.38 359.75L712.72 361.38" stroke="#b6a0ff" stroke-opacity=".5"/><path d="M708.84 340.11L705.03 341.35" stroke="#b6a0ff" stroke-opacity=".5"/><path d="M703.39 319.79L699.48 320.62" stroke="#b6a0ff" stroke-opacity=".5"/><path d="M700.10 299.01L696.12 299.43" stroke="#b6a0ff" stroke-opacity=".5"/><path d="M699.00 278.00L689.00 278.00" stroke="#b6a0ff" stroke-opacity=".5"/><path d="M700.10 256.99L696.12 256.57" stroke="#b6a0ff" stroke-opacity=".5"/><path d="M703.39 236.21L699.48 235.38" stroke="#b6a0ff" stroke-opacity=".5"/><path d="M708.84 215.89L705.03 214.65" stroke="#b6a0ff" stroke-opacity=".5"/><path d="M716.38 196.25L712.72 194.62" stroke="#b6a0ff" stroke-opacity=".5"/><path d="M725.93 177.50L717.27 172.50" stroke="#b6a0ff" stroke-opacity=".5"/><path d="M737.39 159.86L734.15 157.50" stroke="#b6a0ff" stroke-opacity=".5"/><path d="M750.63 143.50L747.66 140.83" stroke="#b6a0ff" stroke-opacity=".5"/><path d="M765.50 128.63L762.83 125.66" stroke="#b6a0ff" stroke-opacity=".5"/><path d="M781.86 115.39L779.50 112.15" stroke="#b6a0ff" stroke-opacity=".5"/><path d="M799.50 103.93L794.50 95.27" stroke="#b6a0ff" stroke-opacity=".5"/><path d="M818.25 94.38L816.62 90.72" stroke="#b6a0ff" stroke-opacity=".5"/><path d="M837.89 86.84L836.65 83.03" stroke="#b6a0ff" stroke-opacity=".5"/><path d="M858.21 81.39L857.38 77.48" stroke="#b6a0ff" stroke-opacity=".5"/><path d="M878.99 78.10L878.57 74.12" stroke="#b6a0ff" stroke-opacity=".5"/><path d="M900.00 77.00L900.00 67.00" stroke="#b6a0ff" stroke-opacity=".5"/><path d="M921.01 78.10L921.43 74.12" stroke="#b6a0ff" stroke-opacity=".5"/><path d="M941.79 81.39L942.62 77.48" stroke="#b6a0ff" stroke-opacity=".5"/><path d="M962.11 86.84L963.35 83.03" stroke="#b6a0ff" stroke-opacity=".5"/><path d="M981.75 94.38L983.38 90.72" stroke="#b6a0ff" stroke-opacity=".5"/><path d="M1000.50 103.93L1005.50 95.27" stroke="#b6a0ff" stroke-opacity=".5"/><path d="M1018.14 115.39L1020.50 112.15" stroke="#b6a0ff" stroke-opacity=".5"/><path d="M1034.50 128.63L1037.17 125.66" stroke="#b6a0ff" stroke-opacity=".5"/><path d="M1049.37 143.50L1052.34 140.83" stroke="#b6a0ff" stroke-opacity=".5"/><path d="M1062.61 159.86L1065.85 157.50" stroke="#b6a0ff" stroke-opacity=".5"/><path d="M1074.07 177.50L1082.73 172.50" stroke="#b6a0ff" stroke-opacity=".5"/><path d="M1083.62 196.25L1087.28 194.62" stroke="#b6a0ff" stroke-opacity=".5"/><path d="M1091.16 215.89L1094.97 214.65" stroke="#b6a0ff" stroke-opacity=".5"/><path d="M1096.61 236.21L1100.52 235.38" stroke="#b6a0ff" stroke-opacity=".5"/><path d="M1099.90 256.99L1103.88 256.57" stroke="#b6a0ff" stroke-opacity=".5"/><circle cx="900" cy="86" r="5" fill="#72f5d0"/><circle cx="900" cy="470" r="4" fill="#b6a0ff"/></g><rect x="827" y="205" width="146" height="146" rx="29" fill="#090e1a" stroke="url(#edge)"/><rect x="835" y="213" width="130" height="130" rx="22" fill="url(#panel)" stroke="#323952"/><path d="M857 255L881 277 857 299M900 301H938" fill="none" stroke="url(#edge)" stroke-width="7" stroke-linecap="round" stroke-linejoin="round"/><text x="900" y="378" fill="#72f5d0" font-size="10" font-weight="500" text-anchor="middle" letter-spacing="3" class="mono">THE ENGINE ROOM</text><rect x="721" y="163" width="137" height="34" rx="8" fill="#0c1423" stroke="#37415a"/><text x="789.5" y="185" fill="#72f5d0" font-size="12" font-weight="400" text-anchor="middle" class="mono">{ APIs }</text><rect x="1020" y="393" width="137" height="34" rx="8" fill="#0c1423" stroke="#37415a"/><text x="1088.5" y="415" fill="#72f5d0" font-size="12" font-weight="400" text-anchor="middle" class="mono">[ SECURITY ]</text><path d="M48 477H1152" stroke="#263148"/><text x="50" y="524" fill="#b6a0ff" font-size="28" font-weight="300" class="mono">01</text><text x="105" y="511" fill="#72f5d0" font-size="12" font-weight="600" letter-spacing="2">BUILD</text><text x="105" y="539" fill="#94a0b9" font-size="15" font-weight="400" >Reliable backend systems</text><text x="436" y="524" fill="#b6a0ff" font-size="28" font-weight="300" class="mono">02</text><text x="491" y="511" fill="#72f5d0" font-size="12" font-weight="600" letter-spacing="2">DEFEND</text><text x="491" y="539" fill="#94a0b9" font-size="15" font-weight="400" >Security-aware engineering</text><text x="824" y="524" fill="#b6a0ff" font-size="28" font-weight="300" class="mono">03</text><text x="879" y="511" fill="#72f5d0" font-size="12" font-weight="600" letter-spacing="2">REFINE</text><text x="879" y="539" fill="#94a0b9" font-size="15" font-weight="400" >Learn. Automate. Improve.</text></svg>