<svg xmlns="http://www.w3.org/2000/svg" width="780" height="330" viewBox="0 0 780 330" role="img" aria-labelledby="title">
<title id="title">Make delivery repeatable. Docker &amp; GitHub Actions. Nginx reverse proxies. Reproducible deployments</title>
<defs>
<linearGradient id="edge"><stop stop-color="#72f5d0"/><stop offset=".52" stop-color="#b6a0ff"/><stop offset="1" stop-color="#ed9cc8"/></linearGradient>
<radialGradient id="aura"><stop stop-color="#6553c1" stop-opacity=".38"/><stop offset="1" stop-color="#6553c1" stop-opacity="0"/></radialGradient>
<linearGradient id="panel" x2="1" y2="1"><stop stop-color="#141b2d"/><stop offset="1" stop-color="#0c1220"/></linearGradient>
<pattern id="grid" width="40" height="40" patternUnits="userSpaceOnUse"><path d="M40 0H0V40" fill="none" stroke="#a5b3dd" stroke-opacity=".045"/></pattern>
</defs>
<style>text{font-family:Segoe UI,Arial,sans-serif}.mono{font-family:Consolas,monospace}.orbit{animation:spin 45s linear infinite;transform-origin:900px 278px}.pulse{animation:breath 5s ease-in-out infinite}@keyframes spin{to{transform:rotate(360deg)}}@keyframes breath{50%{opacity:.4}}@media(prefers-reduced-motion:reduce){.orbit,.pulse{animation:none}}</style>
<rect x="1" y="1" width="778" height="328" rx="20" fill="#090d18" stroke="#2a344b"/><path d="M25 1H755" stroke="#ed9cc8" stroke-opacity=".7"/><circle cx="704" cy="58" r="105" fill="#ed9cc8" fill-opacity=".035"/><text x="34" y="44" fill="#ed9cc8" font-size="12" font-weight="600" letter-spacing="2">PLATFORM &amp; DELIVERY</text><text x="745" y="49" fill="#45506a" font-size="28" font-weight="400" text-anchor="end" class="mono">03</text><g transform="translate(37 78)" fill="none" stroke="#ed9cc8" stroke-width="2.2" stroke-linecap="round" stroke-linejoin="round"><path d="M3 29L23 9 44 29 23 49Z M3 29V45L23 64 44 45V29M23 49V64 M23 9V-2M16 5L23-2 30 5"/></g><text x="113" y="113" fill="#f0f2ff" font-size="30" font-weight="650" >Make delivery repeatable.</text><text x="37" y="188" fill="#ed9cc8" font-size="19" font-weight="400" >↗</text><text x="69" y="188" fill="#94a0b9" font-size="20" font-weight="400" >Docker &amp; GitHub Actions</text><text x="37" y="228" fill="#ed9cc8" font-size="19" font-weight="400" >↗</text><text x="69" y="228" fill="#94a0b9" font-size="20" font-weight="400" >Nginx reverse proxies</text><text x="37" y="268" fill="#ed9cc8" font-size="19" font-weight="400" >↗</text><text x="69" y="268" fill="#94a0b9" font-size="20" font-weight="400" >Reproducible deployments</text></svg>